<svg width="98" height="98" viewBox="0 0 98 98" fill="none" xmlns="http://www.w3.org/2000/svg">
<path d="M49.0002 16.3333C53.332 16.3333 57.4865 18.0541 60.5496 21.1172C63.6127 24.1803 65.3335 28.3348 65.3335 32.6666C65.3335 36.9985 63.6127 41.153 60.5496 44.2161C57.4865 47.2792 53.332 49 49.0002 49C44.6683 49 40.5138 47.2792 37.4508 44.2161C34.3877 41.153 32.6668 36.9985 32.6668 32.6666C32.6668 28.3348 34.3877 24.1803 37.4508 21.1172C40.5138 18.0541 44.6683 16.3333 49.0002 16.3333ZM49.0002 57.1666C67.0485 57.1666 81.6668 64.4758 81.6668 73.5V81.6666H16.3335V73.5C16.3335 64.4758 30.9518 57.1666 49.0002 57.1666Z" fill="#FDFDFD"/>
</svg>
